<?xml version="1.0" encoding="utf-8"?>
<!-- Generated by IcoMoon.io -->
<!DOCTYPE svg PUBLIC "-//W3C//DTD SVG 1.1//EN" "http://www.w3.org/Graphics/SVG/1.1/DTD/svg11.dtd">
<svg version="1.1" xmlns="http://www.w3.org/2000/svg" xmlns:xlink="http://www.w3.org/1999/xlink" width="32" height="32" viewBox="0 0 32 32">
<g>
</g>
	<path d="M23.585 16.084c-0.010 0.021-0.536 0.662-1.039 1.587-0.618 1.135-1.256 2.634-1.521 3.152 3.414-0 8.53-0 8.53-0s-2.049-3.504-5.97-4.738zM26.734 10.191c-5.348 0-7.985 4.703-8.665 6.145-0.237 0.501-0.474 0.997-0.711 1.486-2.771 0-6.236 0-6.236 0s1.498 3 3.136 3c0.015 0 0.822 0 1.536 0-0.399 0.696-0.808 1.355-1.238 1.955-1.085 1.517-2.924 2.422-4.918 2.422-1.402 0-2.696-0.469-3.736-1.256 0.14-0.212 0.234-0.454 0.27-0.713 0.011-0.077 0.018-0.156 0.018-0.235 0-0.879-0.666-1.608-1.54-1.751-0.102-0.016-0.207-0.027-0.315-0.027-0.16 0-0.314 0.021-0.463 0.058-0.279-0.706-0.435-1.474-0.435-2.277 0-3.418 2.782-6.199 6.201-6.199 1.613 0 3.142 0.617 4.303 1.737l2.082-2.161c-1.723-1.661-3.991-2.576-6.385-2.576-5.073 0-9.2 4.127-9.2 9.199 0 1.537 0.381 2.986 1.050 4.261 0.184-0.070 0.384-0.109 0.594-0.109 0.142 0 0.28 0.020 0.413 0.052 0.683 0.172 1.188 0.758 1.208 1.462 0 0.014 0.002 0.027 0.002 0.040 0 0.375-0.138 0.718-0.368 0.987 1.648 1.552 3.865 2.507 6.303 2.507 2.96 0 5.71-1.374 7.357-3.676 1.426-1.993 2.606-4.404 3.787-6.907 0.49-1.038 2.473-4.427 5.952-4.427 4.343 0 4.828-3 4.828-3h-4.828zM9.659 16.831c0 0.972-0.788 1.76-1.76 1.76s-1.76-0.788-1.76-1.76c0-0.972 0.788-1.76 1.76-1.76 0.972 0 1.76 0.788 1.76 1.76z" fill="#000000"></path>
</svg>
