<?xml version="1.0" encoding="utf-8"?>
<!-- Generated by IcoMoon.io -->
<!DOCTYPE svg PUBLIC "-//W3C//DTD SVG 1.1//EN" "http://www.w3.org/Graphics/SVG/1.1/DTD/svg11.dtd">
<svg version="1.1" xmlns="http://www.w3.org/2000/svg" xmlns:xlink="http://www.w3.org/1999/xlink" width="32" height="32" viewBox="0 0 32 32">
<g>
</g>
	<path d="M22.961 11.508c0.402 4.549-3.48 5.086-3.48 5.086 5.087-9.37-5.488-14.456-5.488-14.456 1.338 4.953-0.669 7.363-2.543 8.968-1.875 1.608-6.158 3.882-6.158 9.637 0 4.653 3.586 7.818 7.79 8.86-6.951-9.136 2.249-15.017 2.249-15.017-2.945 6.424 3.614 7.093 3.614 10.975 0 2.007-0.689 2.99-1.285 4.3 4.778-0.735 9.049-4.81 9.049-9.653 0-5.355-3.748-8.701-3.748-8.701z"></path>
</svg>
